<svg xmlns="http://www.w3.org/2000/svg" viewBox="0 0 120 100" fill="none">
  <!-- Kerala Lotus Logo -->
  <!-- Center petal -->
  <path d="M60 8 C52 30, 48 55, 60 85 C72 55, 68 30, 60 8Z" stroke="#C8952A" stroke-width="3.5" fill="none" stroke-linecap="round" stroke-linejoin="round"/>
  <!-- Center dot -->
  <circle cx="60" cy="38" r="3" fill="#C8952A"/>
  <!-- Inner left petal -->
  <path d="M42 72 C35 50, 40 30, 60 18 C52 35, 48 55, 42 72Z" stroke="#C8952A" stroke-width="3.5" fill="none" stroke-linecap="round" stroke-linejoin="round"/>
  <!-- Inner right petal -->
  <path d="M78 72 C85 50, 80 30, 60 18 C68 35, 72 55, 78 72Z" stroke="#C8952A" stroke-width="3.5" fill="none" stroke-linecap="round" stroke-linejoin="round"/>
  <!-- Outer left petal -->
  <path d="M18 78 C12 58, 22 38, 48 28 C35 42, 28 60, 18 78Z" stroke="#C8952A" stroke-width="3.5" fill="none" stroke-linecap="round" stroke-linejoin="round"/>
  <!-- Outer right petal -->
  <path d="M102 78 C108 58, 98 38, 72 28 C85 42, 92 60, 102 78Z" stroke="#C8952A" stroke-width="3.5" fill="none" stroke-linecap="round" stroke-linejoin="round"/>
  <!-- Base curve -->
  <path d="M18 78 C30 70, 45 68, 60 85 C75 68, 90 70, 102 78" stroke="#C8952A" stroke-width="3.5" fill="none" stroke-linecap="round" stroke-linejoin="round"/>
</svg>
